<?xml version="1.0" standalone="no"?>
<!DOCTYPE svg PUBLIC "-//W3C//DTD SVG 20010904//EN"
 "http://www.w3.org/TR/2001/REC-SVG-20010904/DTD/svg10.dtd">
<svg version="1.0" xmlns="http://www.w3.org/2000/svg"
 width="512.000000pt" height="512.000000pt" viewBox="0 0 512.000000 512.000000"
 preserveAspectRatio="xMidYMid meet">
<metadata>
Created by potrace 1.11, written by Peter Selinger 2001-2013
</metadata>
<g transform="translate(0.000000,512.000000) scale(0.100000,-0.100000)"
fill="#000000" stroke="none">
<path d="M4865 4785 c-44 -12 -177 -50 -295 -83 -118 -34 -399 -113 -625 -177
-225 -64 -642 -181 -925 -261 -283 -80 -540 -153 -570 -162 -30 -9 -57 -17
-60 -17 -7 -2 -56 -16 -430 -122 -184 -52 -342 -96 -350 -98 -8 -2 -64 -18
-125 -35 -60 -18 -145 -41 -187 -52 l-78 -20 0 -1200 0 -1199 -22 21 c-43 41
-146 90 -229 111 -222 57 -489 -22 -665 -196 -133 -131 -214 -316 -214 -490 0
-249 151 -444 405 -526 67 -22 239 -21 325 2 149 38 304 129 394 231 26 29 69
98 96 153 87 176 83 109 84 1357 1 708 5 1100 11 1106 6 5 39 17 75 26 36 10
198 55 360 101 162 46 441 125 620 175 179 51 370 105 424 121 55 15 102 26
106 24 12 -8 8 -1685 -4 -1678 -6 4 -24 17 -41 29 -95 69 -218 106 -355 106
-143 0 -270 -40 -395 -123 -226 -151 -357 -417 -323 -654 11 -82 16 -97 54
-173 40 -83 123 -173 197 -216 147 -86 323 -104 517 -52 159 43 229 79 323
170 87 85 173 246 191 363 2 16 8 48 12 73 4 25 8 533 8 1129 l1 1084 150 42
c83 24 265 75 405 115 587 165 791 223 900 254 63 19 122 36 130 37 13 4 15
-93 16 -819 l0 -822 -20 15 c-80 57 -179 100 -261 113 -72 11 -208 5 -280 -13
-70 -18 -210 -84 -263 -125 -99 -77 -197 -200 -241 -302 -43 -101 -62 -243
-47 -348 23 -154 134 -310 275 -384 172 -90 365 -92 594 -6 187 70 339 253
399 479 19 74 20 106 21 1499 1 783 0 1427 -3 1432 -3 4 -41 -2 -85 -15z"/>
</g>
</svg>
